<svg width="44" height="44" viewBox="0 0 44 44" fill="none" xmlns="http://www.w3.org/2000/svg">
<g filter="url(#filter0_d_13_427)">
<rect x="4" width="36" height="36" rx="10" fill="#C1FFFA"/>
<path fill-rule="evenodd" clip-rule="evenodd" d="M18.962 24.4691C16.019 22.2141 12 18.4891 12 14.9671C12 9.08315 17.5 6.88615 22 11.4301C26.5 6.88615 32 9.08315 32 14.9661C32 18.4891 27.98 22.2141 25.038 24.4691C23.706 25.4891 23.04 26.0001 22 26.0001C20.96 26.0001 20.294 25.4901 18.962 24.4691ZM26.5 12.2501C26.6989 12.2501 26.8897 12.3292 27.0303 12.4698C27.171 12.6105 27.25 12.8012 27.25 13.0001V14.2501H28.5C28.6989 14.2501 28.8897 14.3292 29.0303 14.4698C29.171 14.6105 29.25 14.8012 29.25 15.0001C29.25 15.1991 29.171 15.3898 29.0303 15.5305C28.8897 15.6711 28.6989 15.7501 28.5 15.7501H27.25V17.0001C27.25 17.1991 27.171 17.3898 27.0303 17.5305C26.8897 17.6711 26.6989 17.7501 26.5 17.7501C26.3011 17.7501 26.1103 17.6711 25.9697 17.5305C25.829 17.3898 25.75 17.1991 25.75 17.0001V15.7501H24.5C24.3011 15.7501 24.1103 15.6711 23.9697 15.5305C23.829 15.3898 23.75 15.1991 23.75 15.0001C23.75 14.8012 23.829 14.6105 23.9697 14.4698C24.1103 14.3292 24.3011 14.2501 24.5 14.2501H25.75V13.0001C25.75 12.8012 25.829 12.6105 25.9697 12.4698C26.1103 12.3292 26.3011 12.2501 26.5 12.2501Z" fill="#1DA599"/>
</g>
<defs>
<filter id="filter0_d_13_427" x="0" y="0" width="44" height="44" filterUnits="userSpaceOnUse" color-interpolation-filters="sRGB">
<feFlood flood-opacity="0" result="BackgroundImageFix"/>
<feColorMatrix in="SourceAlpha" type="matrix" values="0 0 0 0 0 0 0 0 0 0 0 0 0 0 0 0 0 0 127 0" result="hardAlpha"/>
<feOffset dy="4"/>
<feGaussianBlur stdDeviation="2"/>
<feComposite in2="hardAlpha" operator="out"/>
<feColorMatrix type="matrix" values="0 0 0 0 0 0 0 0 0 0 0 0 0 0 0 0 0 0 0.25 0"/>
<feBlend mode="normal" in2="BackgroundImageFix" result="effect1_dropShadow_13_427"/>
<feBlend mode="normal" in="SourceGraphic" in2="effect1_dropShadow_13_427" result="shape"/>
</filter>
</defs>
</svg>
