<svg width="183" height="89" viewBox="0 0 183 89" fill="none" xmlns="http://www.w3.org/2000/svg">
<path d="M8.45679 85.9335L18.6613 73.3121C19.5246 72.2443 19.9956 70.9128 19.9956 69.5397L19.9956 29.5858C19.9956 28.1308 20.5243 26.7254 21.4832 25.6312L38.6833 6.00542C41.2347 3.09423 45.8343 3.32512 48.0813 6.47718L65.5433 30.9725" stroke="#FFC265" stroke-width="5" stroke-linecap="round"/>
<path d="M8.45679 85.9335L8.45679 29.2876C8.45679 27.8874 8.94652 26.5312 9.84116 25.4541L25.9226 6.09185C28.4627 3.03355 33.2208 3.24642 35.4777 6.51932L49.2534 26.497C50.1568 27.8072 51.5438 28.7047 53.109 28.9922L65.5433 31.2761" stroke="#1DA599" stroke-width="5" stroke-linecap="round"/>
<path d="M34.1432 82.9335L37.3432 63.9335C37.6632 62.0401 38.1432 60.4535 38.7832 59.1735C39.4499 57.8935 40.3032 56.8535 41.3432 56.0535C42.4099 55.2535 43.6765 54.6801 45.1432 54.3335C46.6365 53.9868 48.3699 53.8135 50.3432 53.8135C51.4099 53.8135 52.5165 53.8801 53.6632 54.0135C54.8365 54.1201 55.9565 54.2935 57.0232 54.5335L57.1032 55.0135C56.9965 55.5201 56.9165 56.1735 56.8632 56.9735C56.8365 57.7735 56.8232 58.5868 56.8232 59.4135C56.8232 60.2135 56.8232 60.8801 56.8232 61.4135V82.9335H51.1032V60.9335C51.1032 60.2401 51.1165 59.6135 51.1432 59.0535C51.1965 58.4668 51.2765 57.9335 51.3832 57.4535L52.1832 58.9335C51.8632 58.8268 51.4499 58.7601 50.9432 58.7335C50.4632 58.6801 49.9832 58.6535 49.5032 58.6535C48.0365 58.6535 46.8632 58.8535 45.9832 59.2535C45.1299 59.6268 44.4765 60.2135 44.0232 61.0135C43.5699 61.8135 43.2365 62.8268 43.0232 64.0535L39.9032 82.9335H34.1432ZM38.7832 74.9735V70.2535H53.6632V74.9735H38.7832ZM63.6385 82.9335V59.2935C63.6385 58.7601 63.6252 58.0801 63.5985 57.2535C63.5985 56.4001 63.5719 55.5735 63.5185 54.7735C63.4652 53.9735 63.3719 53.3335 63.2385 52.8535L63.3585 52.5335H69.2385V82.9335H63.6385ZM85.826 82.9335V54.1335H90.426L105.666 69.8535V77.5335L89.906 61.2535L91.506 60.6135V82.9335H85.826ZM103.546 82.9335V54.1335H109.226V82.9335H103.546ZM124.541 83.4135C121.208 83.4135 118.688 82.8668 116.981 81.7735C115.301 80.6801 114.461 78.9068 114.461 76.4535C114.461 74.8801 114.848 73.5868 115.621 72.5735C116.421 71.5601 117.528 70.8135 118.941 70.3335C120.381 69.8268 122.035 69.5735 123.901 69.5735C125.048 69.5735 126.048 69.6668 126.901 69.8535C127.755 70.0135 128.528 70.1868 129.221 70.3735V73.9735C128.688 73.7868 128.008 73.6268 127.181 73.4935C126.355 73.3335 125.555 73.2535 124.781 73.2535C123.048 73.2535 121.755 73.4935 120.901 73.9735C120.075 74.4535 119.661 75.2668 119.661 76.4135C119.661 77.5068 120.075 78.2935 120.901 78.7735C121.728 79.2535 122.915 79.4935 124.461 79.4935C125.395 79.4935 126.288 79.4135 127.141 79.2535C128.021 79.0668 128.795 78.7868 129.461 78.4135L128.661 79.9735C128.555 79.6535 128.461 79.3335 128.381 79.0135C128.301 78.6935 128.235 78.3601 128.181 78.0135C128.155 77.6668 128.128 77.2801 128.101 76.8535C128.101 76.4001 128.101 75.8535 128.101 75.2135V69.7335C128.101 68.3735 127.888 67.3468 127.461 66.6535C127.035 65.9601 126.408 65.5068 125.581 65.2935C124.755 65.0535 123.728 64.9335 122.501 64.9335C121.381 64.9335 120.301 65.0535 119.261 65.2935C118.221 65.5068 117.381 65.7601 116.741 66.0535H116.341V61.6135C117.301 61.2668 118.381 61.0135 119.581 60.8535C120.781 60.6668 121.981 60.5735 123.181 60.5735C124.675 60.5735 126.048 60.7068 127.301 60.9735C128.581 61.2401 129.688 61.7068 130.621 62.3735C131.555 63.0401 132.275 63.9868 132.781 65.2135C133.315 66.4135 133.581 67.9735 133.581 69.8935V74.9335C133.581 75.4935 133.581 76.2001 133.581 77.0535C133.608 77.8801 133.648 78.6935 133.701 79.4935C133.755 80.2935 133.835 80.9335 133.941 81.4135L133.821 81.7335C132.915 82.0801 131.928 82.3868 130.861 82.6535C129.821 82.8935 128.755 83.0801 127.661 83.2135C126.568 83.3468 125.528 83.4135 124.541 83.4135ZM138.608 77.4135H138.928C139.888 77.8135 141.008 78.1601 142.288 78.4535C143.594 78.7468 144.901 78.8935 146.208 78.8935C146.661 78.8935 147.154 78.8801 147.688 78.8535C148.221 78.8001 148.714 78.7068 149.168 78.5735C149.648 78.4401 150.034 78.2001 150.328 77.8535C150.648 77.5068 150.808 77.0401 150.808 76.4535C150.808 75.7068 150.501 75.1868 149.888 74.8935C149.274 74.6001 148.328 74.3468 147.048 74.1335L145.168 73.8135C143.034 73.4401 141.394 72.8001 140.248 71.8935C139.101 70.9601 138.528 69.5868 138.528 67.7735C138.528 66.4668 138.874 65.2801 139.568 64.2135C140.288 63.1468 141.394 62.3068 142.888 61.6935C144.408 61.0535 146.394 60.7335 148.848 60.7335C149.994 60.7335 151.048 60.8135 152.008 60.9735C152.994 61.1068 153.928 61.3068 154.808 61.5735V66.1735H154.488C153.474 65.7735 152.501 65.4935 151.568 65.3335C150.634 65.1735 149.674 65.0935 148.688 65.0935C147.194 65.0935 146.021 65.2801 145.168 65.6535C144.341 66.0001 143.928 66.6268 143.928 67.5335C143.928 68.2268 144.234 68.7201 144.848 69.0135C145.488 69.3068 146.408 69.5601 147.608 69.7735L149.448 70.0935C150.701 70.2801 151.834 70.6135 152.848 71.0935C153.888 71.5735 154.714 72.2401 155.328 73.0935C155.941 73.9201 156.248 74.9868 156.248 76.2935C156.248 78.6135 155.381 80.3601 153.648 81.5335C151.941 82.6801 149.354 83.2535 145.888 83.2535C144.608 83.2535 143.328 83.1468 142.048 82.9335C140.768 82.7201 139.621 82.4535 138.608 82.1335V77.4135ZM161.021 82.9335V68.9735C161.021 68.4401 161.008 67.7601 160.981 66.9335C160.955 66.0801 160.915 65.2535 160.861 64.4535C160.835 63.6268 160.755 62.9735 160.621 62.4935L160.741 62.1735C161.488 61.9068 162.355 61.6668 163.341 61.4535C164.355 61.2401 165.408 61.0801 166.501 60.9735C167.621 60.8401 168.741 60.7735 169.861 60.7735C170.341 60.7735 170.861 60.7868 171.421 60.8135C171.981 60.8401 172.541 60.8935 173.101 60.9735V65.5335H172.741C172.341 65.4268 171.888 65.3601 171.381 65.3335C170.875 65.2801 170.381 65.2535 169.901 65.2535C169.048 65.2535 168.208 65.3201 167.381 65.4535C166.555 65.5868 165.848 65.7468 165.261 65.9335L166.101 64.6535C166.448 65.3735 166.621 66.6135 166.621 68.3735V82.9335H161.021Z" fill="#1DA599"/>
</svg>
