<svg width="22" height="18" viewBox="0 0 22 18" fill="none" xmlns="http://www.w3.org/2000/svg">
<path d="M21.212 2.65593C20.4489 2.99352 19.6396 3.2153 18.811 3.31393C19.6841 2.79106 20.3373 1.96866 20.649 0.999927C19.829 1.48793 18.93 1.82993 17.994 2.01493C17.3646 1.34151 16.5304 0.89489 15.621 0.744511C14.7116 0.594133 13.7779 0.748418 12.9653 1.18338C12.1526 1.61834 11.5064 2.30961 11.1271 3.14972C10.7478 3.98983 10.6568 4.93171 10.868 5.82893C9.20494 5.74572 7.57797 5.31365 6.09274 4.56079C4.60752 3.80793 3.29724 2.7511 2.247 1.45893C1.87529 2.09738 1.67996 2.82315 1.681 3.56193C1.681 5.01193 2.42 6.29293 3.541 7.04293C2.87702 7.02198 2.22765 6.84267 1.647 6.51993V6.57093C1.64697 7.5368 1.98104 8.47295 2.59253 9.2206C3.20403 9.96825 4.05532 10.4814 5.002 10.6729C4.38564 10.8401 3.7393 10.8648 3.112 10.7449C3.37893 11.5763 3.89922 12.3034 4.6 12.8243C5.30078 13.3453 6.14696 13.6339 7.02 13.6499C6.15236 14.3314 5.15889 14.8351 4.09641 15.1323C3.03393 15.4295 1.92329 15.5143 0.828003 15.3819C2.73972 16.6113 4.96511 17.264 7.238 17.2619C14.932 17.2619 19.138 10.8889 19.138 5.36193C19.138 5.18193 19.134 4.99993 19.126 4.82093C19.9444 4.22928 20.6508 3.49549 21.212 2.65593Z" fill="#1DA599"/>
</svg>
